<svg width="26" height="26" viewBox="0 0 26 26" version="1.1" xmlns="http://www.w3.org/2000/svg" xmlns:xlink="http://www.w3.org/1999/xlink">
<title>100-shopping-cart</title>
<desc>Created using Figma</desc>
<g id="Canvas" transform="translate(-1131 569)">
<g id="100-shopping-cart">
<g id="Group">
<g id="Group">
<g id="Vector">
<use xlink:href="#path0_fill" transform="translate(1131 -569)"/>
</g>
</g>
</g>
<g id="Group">
<g id="Group">
<g id="Vector">
<use xlink:href="#path1_fill" transform="translate(1137.08 -551.992)"/>
</g>
</g>
</g>
</g>
</g>
<defs>
<path id="path0_fill" d="M 25.7381 5.40048C 25.6738 5.32015 25.5795 5.26943 25.477 5.26015L 4.59414 3.36366C 4.58244 3.07603 4.46841 2.79178 4.24943 2.57267L 2.02595 0.347831C 1.80183 0.12358 1.50378 -1.53996e-09 1.18676 -1.53996e-09C 0.869747 -1.53996e-09 0.571745 0.12358 0.347626 0.347831C 0.123457 0.572132 0 0.870359 0 1.18756C 0 1.50476 0.123457 1.80294 0.347626 2.02724L 2.57111 4.25198C 2.79523 4.47628 3.09329 4.59981 3.4103 4.59981C 3.52957 4.59981 3.64617 4.5823 3.75717 4.54854L 6.91859 15.0232C 7.17604 15.8762 7.94699 16.4427 8.82441 16.4427C 8.87403 16.4427 8.92411 16.4408 8.97434 16.4372L 23.2714 15.3904C 24.0211 15.3355 24.6357 14.7544 24.733 14.0085L 25.8179 5.68604C 25.8312 5.58396 25.8024 5.48087 25.7381 5.40048ZM 3.7145 3.71674C 3.63321 3.79803 3.52518 3.84284 3.41025 3.84284C 3.29531 3.84284 3.18729 3.79808 3.10599 3.71674L 0.882506 1.49194C 0.80121 1.41065 0.756477 1.30251 0.756477 1.18756C 0.756477 1.07261 0.80121 0.964419 0.882506 0.883075C 0.963802 0.801781 1.07183 0.756972 1.18676 0.756972C 1.3017 0.756972 1.40972 0.801781 1.49102 0.883075L 3.7145 3.10787C 3.88229 3.27575 3.88229 3.5489 3.7145 3.71674ZM 13.0253 4.88936L 13.1958 7.65828L 9.66001 7.5294L 9.10208 4.5331L 13.0253 4.88936ZM 4.41419 4.10731L 8.31938 4.462L 8.88528 7.50119L 5.40014 7.37413L 4.41419 4.10731ZM 6.71323 11.7246L 5.63132 8.13998L 9.02729 8.26376L 9.65951 11.6591L 6.71323 11.7246ZM 8.91907 15.6822C 8.33607 15.7247 7.81163 15.3638 7.64274 14.8043L 6.94022 12.4767L 9.79991 12.4131L 10.3886 15.5747L 8.91907 15.6822ZM 9.80203 8.29202L 13.2426 8.41742L 13.4371 11.5751L 10.4258 11.6421L 9.80203 8.29202ZM 11.1477 15.5191L 10.5662 12.396L 13.4836 12.3312L 13.6686 15.3345L 11.1477 15.5191ZM 17.0984 15.0834L 14.4231 15.2792L 14.2405 12.3143L 17.1738 12.2491L 17.0984 15.0834ZM 17.194 11.4916L 14.194 11.5583L 14.0022 8.44512L 17.2718 8.56426L 17.194 11.4916ZM 17.292 7.80754L 13.9554 7.68593L 13.7874 4.95859L 17.3591 5.28296L 17.292 7.80754ZM 20.7373 14.8169L 17.8566 15.0279L 17.931 12.2323L 20.9505 12.1651L 20.7373 14.8169ZM 21.0115 11.4067L 17.9512 11.4747L 18.0279 8.59181L 21.2285 8.70848L 21.0115 11.4067ZM 21.2892 7.95327L 18.048 7.83514L 18.114 5.35153L 21.4739 5.65667L 21.2892 7.95327ZM 23.9828 13.9106C 23.9319 14.3018 23.6094 14.6067 23.2162 14.6355L 21.5007 14.7611L 21.7108 12.1482L 24.2199 12.0924L 23.9828 13.9106ZM 24.3189 11.3331L 21.7718 11.3898L 21.9852 8.73608L 24.6448 8.83302L 24.3189 11.3331ZM 24.7431 8.07913L 22.0459 7.98083L 22.2273 5.72505L 25.0169 5.97842L 24.7431 8.07913Z"/>
<path id="path1_fill" d="M 16.1057 5.28607L 16.1057 4.37912L 16.9402 4.37912C 17.1491 4.37912 17.3184 4.20967 17.3184 4.00066C 17.3184 3.79165 17.1491 3.6222 16.9402 3.6222L 1.18718 3.6222C 1.03997 3.6222 0.908999 3.55166 0.827955 3.42868C 0.746911 3.30566 0.733647 3.1575 0.791644 3.02206L 1.86004 0.527656C 1.94235 0.33555 1.85338 0.113064 1.66139 0.0307112C 1.4694 -0.0516418 1.24704 0.0373214 1.16474 0.229479L 0.0963404 2.72384C -0.061259 3.09185 -0.0238389 3.51109 0.196397 3.84534C 0.416632 4.17955 0.787003 4.37912 1.18718 4.37912L 1.6041 4.37912L 1.6041 5.28607C 0.908847 5.45637 0.391316 6.08482 0.391316 6.83221C 0.391316 7.71003 1.10503 8.42421 1.98234 8.42421C 2.85965 8.42421 3.57336 7.71003 3.57336 6.83221C 3.57336 6.08482 3.05583 5.45637 2.36058 5.28607L 2.36058 4.37912L 15.3492 4.37912L 15.3492 5.28607C 14.6539 5.45637 14.1364 6.08482 14.1364 6.83221C 14.1364 7.71003 14.8501 8.42421 15.7274 8.42421C 16.6047 8.42421 17.3184 7.71003 17.3184 6.83221C 17.3184 6.08482 16.8009 5.45637 16.1057 5.28607ZM 2.81688 6.83215C 2.81688 7.29261 2.44253 7.66724 1.98234 7.66724C 1.52215 7.66724 1.14779 7.29261 1.14779 6.83215C 1.14779 6.37169 1.52215 5.99712 1.98234 5.99712C 2.44253 5.99712 2.81688 6.37174 2.81688 6.83215ZM 15.7274 7.66724C 15.2672 7.66724 14.8929 7.29261 14.8929 6.83215C 14.8929 6.37169 15.2672 5.99712 15.7274 5.99712C 16.1876 5.99712 16.562 6.37174 16.562 6.83215C 16.562 7.29261 16.1876 7.66724 15.7274 7.66724Z"/>
</defs>
</svg>
