<svg width="180" height="103" viewBox="0 0 180 103" version="1.1" xmlns="http://www.w3.org/2000/svg" xmlns:xlink="http://www.w3.org/1999/xlink">
<title>Art-millennium_LOGO</title>
<desc>Created using Figma</desc>
<g id="Canvas" transform="translate(605 480)">
<g id="Art-millennium_LOGO">
<g id="&#208;&#161;&#208;&#187;&#208;&#190;&#208;&#185; x0020 1">
<g id="Subtract" filter="url(#filter0_i)">
<use xlink:href="#path0_fill" transform="translate(-566.394 -480)" fill="#F4C2A0"/>
</g>
<g id="Vector">
<use xlink:href="#path1_fill" transform="translate(-605 -437.491)" fill="#3B3635"/>
</g>
</g>
</g>
</g>
<defs>
<filter id="filter0_i" filterUnits="userSpaceOnUse" x="-567" y="-480" width="104" height="103" color-interpolation-filters="sRGB">
<feFlood flood-opacity="0" result="BackgroundImageFix"/>
<feBlend mode="normal" in="SourceGraphic" in2="BackgroundImageFix" result="shape"/>
<feColorMatrix in="SourceAlpha" type="matrix" values="0 0 0 0 0 0 0 0 0 0 0 0 0 0 0 0 0 0 255 0" result="hardAlpha"/>
<feOffset dx="0" dy="0"/>
<feGaussianBlur stdDeviation="2.5"/>
<feComposite in2="hardAlpha" operator="arithmetic" k2="-1" k3="1"/>
<feColorMatrix type="matrix" values="0 0 0 0 0.301961 0 0 0 0 0.211765 0 0 0 0 0.27451 0 0 0 0.25 0"/>
<feBlend mode="normal" in2="shape" result="effect1_innerShadow"/>
</filter>
<path id="path0_fill" fill-rule="evenodd" d="M 51.3806 0C 79.7419 0 102.761 23.0528 102.761 51.5129C 102.761 58.9579 101.183 66.0338 98.3443 72.4237C 97.2838 72.8454 96.147 73.3579 94.9787 73.8846L 94.9781 73.8848C 92.5135 74.9958 89.9093 76.1699 87.5872 76.6872C 82.5731 77.7862 80.5611 76.5479 77.8205 74.8612C 77.0771 74.4036 76.28 73.9131 75.3549 73.4272C 76.1807 76.1697 80.2839 80.1801 83.8968 81.3443C 87.2209 82.4552 90.6299 81.7937 93.5688 80.9029C 92.4522 82.509 91.2467 84.0483 89.9593 85.5138C 83.4068 86.628 81.3783 84.8012 76.5484 80.4514L 76.3065 80.2336L 76.1032 80.0507C 71.8194 76.1956 67.2516 72.2112 58.942 72.4182C 52.4904 72.5993 46.5807 76.739 44.5936 81.8101L 44.8333 81.6368C 49.0894 78.5609 53.3939 75.45 61.6516 77.0753C 67.7909 78.2845 71.3451 81.7138 74.6242 84.8775C 77.5554 87.7056 80.2667 90.3215 84.4079 90.9497C 84.4489 90.9152 84.4897 90.8808 84.5305 90.8462C 75.5806 98.4286 64.0103 103 51.3806 103C 23.0193 103 0 79.9472 0 51.5129C 0 23.0528 23.0193 0 51.3806 0ZM 71.1089 89.811C 72.2707 90.4225 73.4635 91.0503 74.9677 91.5901C 64.4807 77.5714 52.9853 81.8944 45.0068 84.8949C 42.8545 85.7043 40.9581 86.4175 39.4064 86.6484C 33.7906 87.4939 31.2903 85.7914 28.4156 83.834L 28.4144 83.8331L 28.4133 83.8323C 27.6823 83.3347 26.9272 82.8205 26.0903 82.3276C 27.1484 84.9925 31.329 89.3133 34.5291 90.5811C 39.4677 92.5294 44.4725 91.0025 49.6933 89.4097C 53.6935 88.1892 57.8206 86.9301 62.1419 87.1658C 66.5432 87.4081 68.7627 88.5762 71.1089 89.811ZM 49.8541 23.7798L 53.4564 23.7798L 56.7847 28.8439L 58.9545 28.8439L 58.9545 28.7408L 55.3523 23.4273C 56.2721 23.1407 56.9883 22.708 57.5009 22.1291C 58.0206 21.5502 58.2804 20.8709 58.2804 20.0914C 58.2804 18.8648 57.8134 17.9305 56.8795 17.2885C 55.9526 16.6466 54.6255 16.3256 52.8981 16.3256L 47.8213 16.3256L 47.8213 28.8439L 49.8541 28.8439L 49.8541 23.7798ZM 52.9613 22.43L 49.8541 22.43L 49.8541 17.6841L 52.9507 17.6841C 54.0181 17.6898 54.8326 17.899 55.3944 18.3117C 55.9632 18.7244 56.2476 19.3176 56.2476 20.0914C 56.2476 20.8022 55.9491 21.3696 55.3523 21.7938C 54.7624 22.2179 53.9655 22.43 52.9613 22.43ZM 37.6088 25.577L 44.0338 25.577L 45.4979 28.8442L 47.5729 28.8442L 41.7061 16.3258L 39.9366 16.3258L 34.0803 28.8442L 36.1658 28.8442L 37.6088 25.577ZM 43.4335 24.2186L 38.2197 24.2186L 40.8214 18.3635L 43.4335 24.2186ZM 71.3281 17.6841L 66.3987 17.6841L 66.3987 28.8439L 64.3869 28.8439L 64.3869 17.6841L 59.4681 17.6841L 59.4681 16.3256L 71.3281 16.3256L 71.3281 17.6841ZM 27.0968 24.4499C 27.0968 25.0215 26.6346 25.4848 26.0646 25.4848C 25.4944 25.4848 25.0323 25.0215 25.0323 24.4499C 25.0323 23.8783 25.4944 23.415 26.0646 23.415C 26.6346 23.415 27.0968 23.8783 27.0968 24.4499ZM 76.0258 25.4848C 76.5959 25.4848 77.058 25.0215 77.058 24.4499C 77.058 23.8783 76.5959 23.415 76.0258 23.415C 75.4557 23.415 74.9935 23.8783 74.9935 24.4499C 74.9935 25.0215 75.4557 25.4848 76.0258 25.4848Z"/>
<path id="path1_fill" d="M 1.93548 22.0955L 0 5.84728L 4.18064 5.35569L 11.0968 15.7825L 15.1742 4.0103L 19.071 3.54459L 21.0065 19.7928L 17.4194 20.2326L 15.871 7.16679L 10.7613 21.6297L 2.09032 8.82266L 3.63871 21.8885L 1.93548 22.0955ZM 30.7871 18.8096L 27.1226 19.1459L 25.6258 2.84602L 29.2903 2.50967L 30.7871 18.8096ZM 49.3935 16.1706L 49.471 17.3866L 37.0839 18.2145L 36 1.88872L 39.7161 1.62999L 40.7226 16.7398L 49.3935 16.1706ZM 65.0323 15.5237L 65.0839 16.7398L 52.7226 17.2831L 52.0258 0.931424L 55.7419 0.776187L 56.3613 15.886L 65.0323 15.5237ZM 68.3355 16.5845L 68.0258 0.232856L 80.4387 0L 80.4387 1.2419L 71.7677 1.39714L 71.871 7.37378L 79.9484 7.21854L 79.9742 8.46044L 71.8968 8.5898L 72.0258 15.2909L 80.6968 15.1356L 80.7226 16.3517L 68.3355 16.5845ZM 85.9613 16.4034L 86.0387 0.0258729L 89.4452 0.0517458L 99.7677 11.4099L 99.8194 0.129364L 101.6 0.129364L 101.523 16.481L 99.7419 16.481L 87.8194 3.36348L 87.7419 16.4034L 85.9613 16.4034ZM 107.561 16.4552L 108.052 0.103492L 111.458 0.206983L 121.497 11.798L 121.832 0.517458L 123.613 0.569204L 123.123 16.9209L 121.342 16.8691L 109.729 3.49284L 109.342 16.5069L 107.561 16.4552ZM 133.006 17.7229L 129.342 17.516L 130.219 1.19015L 133.884 1.39714L 133.006 17.7229ZM 140.516 1.78523L 144.232 2.06983L 143.432 11.9274C 143.277 13.842 143.51 15.1874 144.103 15.9895C 144.723 16.8174 145.781 17.2572 147.355 17.3866C 148.929 17.516 150.065 17.2313 150.761 16.5328C 151.484 15.8342 151.923 14.5147 152.077 12.6001L 152.852 2.74253L 154.632 2.89776L 153.806 13.2987C 153.626 15.3944 152.929 16.9209 151.665 17.8782C 150.426 18.8355 148.619 19.2236 146.271 19.0425C 145.213 18.9648 144.232 18.732 143.303 18.3439C 142.348 17.9558 141.6 17.4642 141.032 16.895C 140.465 16.3258 140.077 15.679 139.871 15.0063C 139.665 14.3077 139.613 13.3763 139.69 12.1603L 140.516 1.78523ZM 158.968 19.6893L 160.929 3.4411L 165.084 3.95855L 169.368 15.7307L 176.103 5.27807L 180 5.74378L 178.039 21.9661L 174.452 21.5521L 176 8.48631L 167.639 21.3451L 162.245 6.83045L 160.671 19.8963L 158.968 19.6893Z"/>
</defs>
</svg>
