<svg width="35" height="35" viewBox="0 0 35 35" version="1.1" xmlns="http://www.w3.org/2000/svg" xmlns:xlink="http://www.w3.org/1999/xlink">
<title>Component 4</title>
<desc>Created using Figma</desc>
<g id="Canvas" transform="translate(-377 449)">
<g id="Component 4">
<g id="Ellipse">
<use xlink:href="#path0_fill" transform="translate(377 -449)" fill="#F0EACB"/>
<mask id="mask0_outline_ins">
<use xlink:href="#path0_fill" fill="white" transform="translate(377 -449)"/>
</mask>
<g mask="url(#mask0_outline_ins)">
<use xlink:href="#path1_stroke_2x" transform="translate(377 -449)" fill="#3B3635"/>
</g>
</g>
<g id="061-telephone-1">
<g id="Group">
<g id="Group">
<g id="Vector">
<use xlink:href="#path2_fill" transform="translate(384 -442)" fill="#3B3635"/>
</g>
</g>
</g>
</g>
</g>
</g>
<defs>
<path id="path0_fill" d="M 35 17.5C 35 27.165 27.165 35 17.5 35C 7.83502 35 0 27.165 0 17.5C 0 7.83502 7.83502 0 17.5 0C 27.165 0 35 7.83502 35 17.5Z"/>
<path id="path1_stroke_2x" d="M 34 17.5C 34 26.6127 26.6127 34 17.5 34L 17.5 36C 27.7173 36 36 27.7173 36 17.5L 34 17.5ZM 17.5 34C 8.3873 34 1 26.6127 1 17.5L -1 17.5C -1 27.7173 7.28273 36 17.5 36L 17.5 34ZM 1 17.5C 1 8.3873 8.3873 1 17.5 1L 17.5 -1C 7.28273 -1 -1 7.28273 -1 17.5L 1 17.5ZM 17.5 1C 26.6127 1 34 8.3873 34 17.5L 36 17.5C 36 7.28273 27.7173 -1 17.5 -1L 17.5 1Z"/>
<path id="path2_fill" d="M 19.0825 20.3865C 18.2147 21.2543 16.3951 21.1993 14.0906 20.2355C 11.59 19.1898 8.82304 17.2241 6.29954 14.7004C 3.7759 12.1769 1.81024 9.40988 0.764502 6.90926C -0.199253 4.60469 -0.254291 2.78526 0.61351 1.91753L 1.34997 1.18099L 1.56775 1.55928C 1.67429 1.74436 1.86796 1.84783 2.06724 1.84783C 2.16473 1.84783 2.26352 1.82304 2.35395 1.77099C 2.62953 1.61232 2.72425 1.26037 2.56566 0.984789L 2.19313 0.337756L 2.28977 0.241112C 2.44591 0.0848996 2.65263 0 2.86941 0C 2.90587 0 2.94256 0.00237949 2.97949 0.0072923C 3.23526 0.0411447 3.45587 0.18876 3.5846 0.412446L 6.8365 6.06049C 7.0218 6.38221 6.96784 6.79028 6.70524 7.0528L 6.2954 7.46264L 3.84775 3.21137C 3.68908 2.93579 3.33704 2.84106 3.06154 2.99973C 2.78597 3.15833 2.69124 3.51036 2.84983 3.78594L 5.45216 8.30588L 5.24367 8.51437C 4.58805 9.17007 4.53377 10.2097 5.11732 10.9328C 5.83598 11.823 6.62525 12.6992 7.46311 13.537C 8.30113 14.375 9.17737 15.1642 10.0673 15.8827C 10.7902 16.4664 11.8299 16.412 12.4857 15.7563L 12.6161 15.6259L 13.6154 16.1962C 13.7054 16.2476 13.8035 16.2721 13.9003 16.2721C 14.1002 16.2721 14.2946 16.1678 14.4008 15.9816C 14.5585 15.7055 14.4624 15.3538 14.1862 15.1963L 13.4602 14.7819L 13.9472 14.2948C 14.2098 14.0323 14.6178 13.9785 14.9396 14.1636L 20.5876 17.4155C 20.8113 17.5442 20.9589 17.7647 20.9927 18.0206C 21.0265 18.2764 20.9413 18.5278 20.7588 18.7103L 20.6079 18.8611L 16.3229 16.4156C 16.0467 16.258 15.6951 16.354 15.5375 16.6302C 15.3799 16.9064 15.476 17.2579 15.7522 17.4155L 19.7639 19.7051L 19.0825 20.3865Z"/>
</defs>
</svg>
